<?xml version="1.0" encoding="UTF-8"?>
<svg id="Layer_2" xmlns="http://www.w3.org/2000/svg" xmlns:xlink="http://www.w3.org/1999/xlink" viewBox="0 0 192.7 110.4">
  <defs>
    <style>
      .cls-1 {
        fill: #ee6a5e;
      }

      .cls-2 {
        filter: url(#drop-shadow-1);
      }

      .cls-2, .cls-3 {
        fill: #639695;
      }
    </style>
    <filter id="drop-shadow-1" x="63.76" y="50.41" width="35.51" height="9.17" filterUnits="userSpaceOnUse">
      <feOffset dx="1.9" dy=".7"/>
      <feGaussianBlur result="blur" stdDeviation=".7"/>
      <feFlood flood-color="#231f20" flood-opacity=".3"/>
      <feComposite in2="blur" operator="in"/>
      <feComposite in="SourceGraphic"/>
    </filter>
  </defs>
  <g id="Layer_1-2" data-name="Layer_1">
    <g>
      <g>
        <path class="cls-1" d="M162.16,110.4c12.63-7.89,20.72-21.55,18.95-36.57-1.84-14.61-12.28-26.09-25.68-32.18,8.01.87,15.69,4.47,21.38,10.2,18.62,18.86,10.67,50.69-14.64,58.55h0Z"/>
        <g>
          <path class="cls-1" d="M156.57,69.56c-3.62-.64-6.71,3.65-7.07,4.15-2.52,3.59-1.97,7.66-1.77,8.85,3.04-7.08,6.08-9.11,8.51-9.44,1.85-.25,3.75.43,4.06-.25.35-.77-1.52-2.92-3.74-3.31Z"/>
          <path class="cls-1" d="M143.88,65.97c-4.05-.18-6.85,5.38-7.16,6.02-1.84,3.78-1.25,7.47-.89,9.02,1.64-6.68,4.33-9.19,6.59-10.2,2.73-1.22,5.61-.61,5.87-1.69.26-1.04-2.04-3.04-4.41-3.15Z"/>
          <path class="cls-1" d="M132.58,62.9c-4.49-.31-7.53,5.34-7.82,5.89-2.55,4.9-.79,9.98-.35,11.15.38-3.63,1.5-7.99,4.89-10.46,3.39-2.47,7.56-1.99,7.76-3.54.15-1.21-2.21-2.88-4.49-3.04Z"/>
          <path class="cls-1" d="M118.61,61.37c-4.42.85-5.91,7.09-6.05,7.7-1.21,5.39,1.8,9.85,2.52,10.87-.57-3.61-.6-8.11,2.05-11.37,2.64-3.25,6.8-3.86,6.59-5.41-.16-1.21-2.87-2.22-5.12-1.79Z"/>
          <path class="cls-1" d="M104.43,59.9c-3.4.8-4.78,6.39-4.79,9.84-.01,5.98,4.09,10.12,5.32,11.27-3.31-6.81-2.9-10.72-1.53-13.09,1.89-3.26,5.96-4.22,5.62-6.05-.24-1.34-2.72-2.42-4.62-1.97Z"/>
        </g>
        <g>
          <path class="cls-1" d="M71.94,62.75c-.45,1.62-1.12,3.22-2.09,4.65-.48.72-1.04,1.38-1.66,1.99-.3.31-.66.56-.99.84-.34.27-.66.55-1.05.75-1.44.95-3.07,1.46-4.65,1.8-1.59.34-3.16.47-4.7.59-3.05.23-6.12.37-8.69,1.85-.3.2-.63.38-.92.6l-.83.73c-.54.51-1,1.11-1.39,1.75-.79,1.28-1.28,2.76-1.55,4.27.14-1.53.49-3.06,1.19-4.47.35-.7.77-1.38,1.3-1.97l.82-.87c.29-.27.63-.5.94-.75,1.31-.93,2.83-1.52,4.36-1.92,1.53-.4,3.07-.63,4.58-.89,3-.49,5.96-1.12,8.12-2.8,2.2-1.62,3.46-4.18,3.93-6.9l3.27.76Z"/>
          <path class="cls-1" d="M53.55,58.98c-.16,1.64-.56,3.3-1.33,4.84-.77,1.53-1.92,2.9-3.37,3.85-1.45.95-3.07,1.41-4.57,1.71-1.51.3-2.97.48-4.37.81-2.8.6-5.39,1.96-7.36,4.11-1.98,2.13-3.38,4.81-4.39,7.6.74-2.88,1.88-5.71,3.75-8.15.93-1.21,2.05-2.3,3.35-3.17,1.28-.88,2.73-1.53,4.19-2.01,2.91-.97,5.97-1.34,7.93-2.95.98-.78,1.7-1.85,2.16-3.02.46-1.18.65-2.48.65-3.81l3.35.19Z"/>
          <path class="cls-1" d="M40.12,57.04c-.3,1.43-.81,2.85-1.61,4.13-.8,1.27-1.88,2.39-3.14,3.18-1.25.81-2.63,1.28-3.93,1.61l-1.91.45c-.6.14-1.16.33-1.73.55-2.24.92-4.21,2.6-5.83,4.57-1.64,1.96-2.96,4.21-4.13,6.53.91-2.43,1.99-4.83,3.45-7.03,1.45-2.2,3.32-4.24,5.78-5.58.61-.32,1.26-.62,1.9-.85l1.83-.64c1.17-.43,2.23-.95,3.1-1.66,1.76-1.4,2.69-3.51,2.88-5.78l3.32.52Z"/>
        </g>
        <path class="cls-1" d="M179.12,39.9c-1.46-1.51-3.04-2.91-4.65-4.26l-2.5-1.91c-.83-.66-1.74-1.19-2.6-1.79-3.53-2.29-7.29-4.21-11.21-5.72-7.85-3.03-16.28-4.45-24.67-4.59-2.1.05-4.2.05-6.3.15l-3.13.34-1.57.17c-.52.05-1.03.18-1.55.28l-3.09.6c-1.03.19-2.03.55-3.05.81-2.04.51-4,1.28-5.97,2-5.37,2.11-10.44,4.84-15.51,7.56-2.33,1.24-4.67,2.49-7.04,3.68-.94.48-1.9.95-2.86,1.41-6.63,3.16-13.53,5.75-20.69,7.4-12.81,3.02-26.15,3.43-39.18,1.64-2.52-.48-5.02-1.03-7.44-1.83-1.38-.45-2.75-.94-4.02-1.59-1.28-.63-2.51-1.36-3.51-2.29-.51-.46-.92-.98-1.26-1.53-.32-.56-.51-1.16-.57-1.8-.1-1.28.35-2.63,1-3.86,1.33-2.49,3.36-4.65,5.51-6.61,4.36-3.9,9.39-7.06,14.6-9.8,5.23-2.73,10.7-4.99,16.31-6.83,11.22-3.65,23.06-5.62,34.89-5.09,5.9.27,11.79,1.19,17.46,2.89,5.67,1.7,11.11,4.17,16.13,7.31-5-3.19-10.42-5.71-16.09-7.47-5.67-1.76-11.57-2.71-17.49-3.08-11.87-.69-23.81,1.13-35.15,4.66-5.68,1.77-11.22,3.98-16.54,6.67-5.3,2.7-10.44,5.83-14.97,9.78-2.24,2-4.38,4.18-5.89,6.91-.73,1.36-1.31,2.92-1.22,4.62.06.84.3,1.69.7,2.43.21.37.44.71.69,1.04-.12-.07-.24-.13-.36-.2-1.32-.84-2.59-1.79-3.58-2.96-.99-1.16-1.68-2.56-1.72-4.06-.06-1.5.41-3.01,1.09-4.41.69-1.4,1.6-2.7,2.6-3.92,2.01-2.44,4.4-4.58,6.92-6.54,2.53-1.95,5.2-3.72,7.96-5.34,5.52-3.24,11.38-5.89,17.41-8.06C49.03,2.41,61.86.04,74.69.35c6.41.18,12.81,1.03,19,2.74,6.19,1.7,12.16,4.21,17.72,7.43-5.53-3.26-11.49-5.82-17.68-7.58-6.19-1.76-12.61-2.67-19.04-2.9-12.88-.41-25.78,1.85-37.93,6.08-6.08,2.13-12,4.75-17.59,7.97-2.8,1.61-5.51,3.37-8.09,5.33-2.56,1.97-5.01,4.12-7.11,6.63-1.04,1.26-2,2.6-2.75,4.08C.49,31.62-.05,33.27,0,35.01c.03,1.75.85,3.41,1.93,4.68,1.09,1.3,2.43,2.3,3.81,3.19,1.54.96,3.15,1.75,4.79,2.46.25.14.51.29.76.42.67.38,1.37.67,2.06,1.01.7.29,1.39.61,2.1.87,2.53.95,5.1,1.77,7.69,2.5,4.69,1.6,9.56,2.76,14.52,3.49,1.1.16,2.2.29,3.3.4,1.11.12,2.21.23,3.33.29,1.11.08,2.23.12,3.33.14,1.12.03,2.23.05,3.36.03,1.12,0,2.23-.05,3.35-.12,1.13-.06,2.24-.12,3.37-.25,1.12-.1,2.23-.25,3.36-.39,1.12-.14,2.24-.24,3.36-.48,8.94-1.5,17.75-4.64,25.61-8.6,1.35-.65,2.65-1.32,3.93-2,.62-.33,1.23-.66,1.85-.98,1.83-.99,3.71-2.03,5.48-2.96.73-.39,1.45-.77,2.17-1.14,2.84-1.48,5.58-2.8,8.34-3.99,1.72-.66,3.44-1.39,5.2-1.86.87-.25,1.73-.61,2.61-.8l2.66-.61c.45-.1.88-.24,1.34-.29l1.36-.19,2.73-.39c1.86-.17,3.72-.27,5.61-.41,2-.04,3.88-.04,5.79.04,1.91.07,3.81.18,5.7.42,3.77.47,7.53,1.17,11.19,2.28,7.32,2.16,14.28,5.73,20.51,10.67,1.56,1.23,3.04,2.58,4.48,4,1.44,1.41,2.85,2.89,4.18,4.44,2.66,3.13,5.1,6.53,7.34,10.15l.19-.08c-3.1-7.82-7.67-15.08-13.58-21.08Z"/>
      </g>
      <g>
        <path class="cls-3" d="M99.2,19.8c-6.65.32-12.75,2.6-17.77,6.29-4.33-1.93-9.15-2.95-14.2-2.82-.63.02-1.25.05-1.87.1,5.29-4.03,11.85-6.5,19.02-6.68,5.3-.14,10.34.99,14.83,3.12Z"/>
        <path class="cls-2" d="M83.01,59.29c-3.41.32-8.14.73-13.96-.86-2.24-.61-4.05-1.35-5.29-1.93,3.13-.06,7.28-.46,11.98-1.81,4.23-1.21,7.65-2.84,10.2-4.28,1.12.86,2.57,1.82,4.37,2.63,3.58,1.61,6.86,1.92,8.96,1.94-6.66,2.97-12.47,3.95-16.25,4.31Z"/>
        <path class="cls-3" d="M93.3,33.54c-2.33,1.24-4.67,2.49-7.04,3.68-.94.48-1.9.95-2.86,1.41-23.2-8.93-44.33-9.55-67.07.18-1,.43-2,.87-3,1.34,1.7-1.35,3.44-2.62,5.26-3.8,14.59-9.48,32.87-13.07,50.05-9.95,8.68,1.49,16.67,4.13,24.65,7.15Z"/>
        <path class="cls-3" d="M154.83,55.36c-12.04,1.97-24.68,1.55-36.3-2.39-5.78-2.02-11.25-4.8-16.91-7.16-2.54-1.07-5.11-2.12-7.68-3.13.62-.33,1.23-.66,1.85-.98,1.83-.99,3.71-2.03,5.48-2.96.73-.39,1.45-.77,2.17-1.14,1.93.85,3.84,1.73,5.68,2.65,5.22,2.53,10.15,5.43,15.49,7.58,9.83,3.85,19.46,5.72,30.22,7.53Z"/>
        <path class="cls-3" d="M13.77,42.06c5.44,1.32,10.93,2.09,16.55,2.2-5.58.98-11.45.62-16.86-1.11,0,0,.31-1.1.31-1.1h0Z"/>
      </g>
    </g>
  </g>
</svg>